<svg height="24" viewBox="0 0 24 24" width="24" xmlns="http://www.w3.org/2000/svg"><path d="m20.7 12 .9-.9c.5-.5.5-1.2 0-1.7s-1.2-.5-1.7 0l-.9.9-1.8-1.8.9-.9c.5-.5.5-1.2 0-1.7s-1.2-.5-1.7 0l-.9.9-1.8-1.8.9-.9c.5-.5.5-1.2 0-1.7s-1.2-.5-1.7 0l-.9.9-.9-.9c-.5-.5-1.2-.5-1.7 0s-.5 1.2 0 1.7l.9.9-1.8 1.8-.9-.9c-.5-.5-1.2-.5-1.7 0s-.5 1.2 0 1.7l.9.9-1.8 1.8-.9-.9c-.5-.5-1.2-.5-1.7 0s-.5 1.2 0 1.7l.9.9-.9.9c-.5.5-.5 1.2 0 1.7s1.2.5 1.7 0l.9-.9 1.8 1.8-.9.9c-.5.5-.5 1.2 0 1.7s1.2.5 1.7 0l.9-.9 1.8 1.8-.9.9c-.5.5-.5 1.2 0 1.7s1.2.5 1.7 0l.9-.9.9.9c.5.5 1.2.5 1.7 0s.5-1.2 0-1.7l-.9-.9 1.8-1.8.9.9c.5.5 1.2.5 1.7 0s.5-1.2 0-1.7l-.9-.9 1.8-1.8.9.9c.5.5 1.2.5 1.7 0s.5-1.2 0-1.7zm-8.7-5.3 1.8 1.8-1.8 1.8-1.8-1.8zm-5.3 5.3 1.8-1.8 1.8 1.8-1.8 1.8zm5.3 5.3-1.8-1.8 1.8-1.8 1.8 1.8zm3.5-3.5-1.8-1.8 1.8-1.8 1.8 1.8z"/></svg>