<svg height="192" viewBox="0 0 192 192" width="192" xmlns="http://www.w3.org/2000/svg"><path d="m76.21 164.66-73.15-126.92c-6.26-10.87-2.6-24.82 8.27-31.08l.83-.47c10.87-6.26 24.82-2.6 31.08 8.27l73.27 126.92c6.26 10.87 2.6 24.82-8.27 31.08l-.83.47c-11 6.27-24.82 2.6-31.2-8.27z" fill="#176c94"/><path d="m76.8 185.34.83.47c10.87 6.26 24.82 2.6 31.08-8.27l80.24-139.09c6.26-10.87 2.6-24.82-8.27-31.08l-.83-.47c-10.87-6.26-24.82-2.6-31.08 8.27l-80.36 139.09c-6.27 10.87-2.49 24.7 8.39 31.08z" fill="#9ad3ef" opacity=".9"/><path d="m123.95 133.93-48.22-83.43c-6.26-10.87-2.6-24.82 8.27-31.08l.83-.47c10.87-6.26 24.82-2.6 31.08 8.27l48.22 83.55c6.26 10.87 2.6 24.82-8.27 31.08l-.83.47c-10.87 6.27-24.82 2.49-31.08-8.39z" fill="#eecd65" opacity=".9"/></svg>