<svg viewBox="0 0 512 512" xmlns="http://www.w3.org/2000/svg" xmlns:xlink="http://www.w3.org/1999/xlink"><linearGradient id="a"><stop offset="0" stop-color="#61afef"/><stop offset=".5" stop-color="#98c379"/><stop offset="1" stop-color="#e5c07b"/></linearGradient><linearGradient id="b" x1="1" x2="0" xlink:href="#a" y1="1"/><linearGradient id="c" x1="1" x2="0" xlink:href="#a" y2="1"/><g fill="url(#b)"><path d="m53.1 188.5 270.1 270.3c12.1 12.1 12.1 31.7 0 43.8s-31.7 12.1-43.8 0l-270.3-270.4c-12.1-12.1-12.1-31.7 0-43.8 12.1-12 31.9-12 44 .1z" opacity=".45"/><path d="m142.8 98.9 270.1 270.3c12.1 12.1 12.1 31.7 0 43.8s-31.7 12.1-43.8 0l-270.2-270c-12.1-12.1-12.1-31.7 0-43.8 12.3-12.5 31.8-12.5 43.9-.3z" opacity=".7"/><path d="m232 9.2 270.1 270.3c12.1 12.1 12.1 31.7 0 43.8s-31.7 12.1-43.8 0l-270.1-270.3c-12.1-12.1-12.1-31.7 0-43.8 12.3-12.3 31.8-12.3 43.8 0z" opacity=".45"/></g><g fill="url(#c)"><path d="m502.9 232.6-270.3 270.3c-12.1 12.1-31.7 12.1-43.8 0s-12.1-31.7 0-43.8l270.2-270.3c12.1-12.1 31.7-12.1 43.8 0 12.2 12.1 12.2 31.7.1 43.8z" opacity=".55"/><path d="m412.9 142.6-270.1 270.3c-12.1 12.1-31.7 12.1-43.8 0s-12.1-31.7 0-43.8l270.2-270.3c12.1-12.1 31.7-12.1 43.8 0 12 12.1 12 31.7-.1 43.8z" opacity=".6"/><path d="m323.4 53.1-270.3 270.3c-12.1 12.1-31.7 12.1-43.8 0s-12.1-31.7 0-43.8l270.2-270.5c12.1-12.1 31.8-12.1 43.9 0 12.3 12.2 12.3 32 0 44z" opacity=".55"/></g></svg>