<svg height="192" viewBox="0 0 980 192" width="980" xmlns="http://www.w3.org/2000/svg"><path d="m77.6 164.7-73.2-127c-6.3-10.9-2.6-24.8 8.3-31.1l.8-.5c10.9-6.3 24.8-2.6 31.1 8.3l73.3 126.9c6.3 10.9 2.6 24.8-8.3 31.1l-.8.5c-11 6.3-24.9 2.6-31.2-8.2z" fill="#176c94"/><path d="m78.2 185.3.8.5c10.9 6.3 24.8 2.6 31.1-8.3l80.2-139.1c6.3-10.9 2.6-24.8-8.3-31.1l-.8-.5c-10.9-6.3-24.8-2.6-31.1 8.3l-80.3 139.2c-6.3 10.8-2.5 24.7 8.4 31z" fill="#9ad3ef" opacity=".9"/><path d="m125.3 133.9-48.2-83.4c-6.3-10.9-2.6-24.8 8.3-31.1l.8-.5c10.9-6.3 24.8-2.6 31.1 8.3l48.2 83.5c6.3 10.9 2.6 24.8-8.3 31.1l-.8.5c-10.9 6.3-24.8 2.5-31.1-8.4z" fill="#eecd65" opacity=".9"/><path d="m449.2 49.2c1.8 0 3.5.6 4.8 1.8 1.4 1.2 2.1 2.7 2.1 4.5 0 .8-.2 1.8-.6 2.7l-29.8 75.3c-.7 1.5-1.8 2.8-3.2 3.7s-3 1.3-4.6 1.3c-1.5 0-3.1-.5-4.4-1.3-1.4-.9-2.4-2.1-3.2-3.7l-24.7-63-24.6 63c-.6 1.5-1.7 2.8-3.1 3.7s-3 1.3-4.6 1.3c-1.5 0-3.1-.5-4.5-1.3-1.4-.9-2.5-2.1-3.2-3.7l-29.6-75.2c-.4-.9-.6-1.8-.6-2.5 0-1.9.8-3.5 2.4-4.8 1.7-1.3 3.4-2 5.3-2 2.8 0 4.8 1.4 6.1 4.3l24.6 66.2 25.3-65.6c.7-1.5 1.7-2.7 3-3.5s2.6-1.3 4-1.3c1.5 0 3 .5 4.3 1.3s2.1 2 2.8 3.5l25.3 65.5 24.7-65.8c1.3-3 3.2-4.4 6-4.4zm93.7 70.1c.9 1.1 1.4 2.5 1.4 4.1 0 3-2.1 5.8-6.3 8.3-4.3 2.5-8.9 4.4-13.6 5.7s-9.5 1.9-13.9 1.9c-13.5 0-24.2-4-32-12.1-7.8-8-11.7-19-11.7-33.2 0-9 1.8-16.9 5.2-23.8s8.4-12.2 14.7-16.1c6.3-3.8 13.5-5.8 21.4-5.8 11.3 0 20.3 3.7 27.1 11.1 6.7 7.4 10 17.5 10 30.1 0 2.4-.5 4.1-1.4 5.2s-2.5 1.7-4.6 1.7h-57.8c1.1 20.6 10.9 30.8 29.2 30.8 4.6 0 8.6-.6 12.1-1.9 3.3-1.3 7-3 10.8-5.1 3.1-1.8 5.2-2.7 6.3-2.7 1.1.2 2.2.7 3.1 1.8zm-53.1-52.5c-4.6 4.7-7.3 11.6-8.2 20.2h50.8c-.2-8.9-2.5-15.6-6.6-20.3s-10-7.1-17.6-7.1c-7.7 0-13.8 2.5-18.4 7.2zm143.8 15.8v48.8c0 2.1-.6 3.9-1.9 5.2s-3 2-5.1 2-3.9-.7-5.2-2-2-3.1-2-5.2v-8.6c-2.2 5.2-5.8 9.1-10.4 11.9s-10 4.3-16.2 4.3c-5.7 0-10.8-1.2-15.5-3.4s-8.5-5.4-11.2-9.5-4.1-8.5-4.1-13.5c0-6.6 1.7-11.7 5-15.4s8.9-6.3 16.5-7.9c7.7-1.7 18.3-2.4 31.9-2.4h4v-5.9c0-7.2-1.4-12.4-4.4-15.8-3-3.3-7.6-5-14.2-5-8 0-16.3 2.2-24.5 6.6-3.2 2-5.6 3.1-6.9 3.1-1.4 0-2.6-.6-3.5-1.7s-1.4-2.5-1.4-4.1.5-3.2 1.5-4.4c1.1-1.3 2.6-2.5 5-3.9 4.1-2.4 8.9-4.3 14.2-5.7s10.5-2 15.7-2c21.8.2 32.7 11.6 32.7 34.5zm-21.1 37.9c4.6-4.8 6.9-11.1 6.9-18.8v-5.2h-3.2c-10.5 0-18.6.5-24 1.3-5.6.9-9.5 2.4-11.7 4.5-2.7 2.4-3.8 6-3.5 10.8.2 3.2 1.5 6.4 3.8 8.7 3.7 3.9 8.3 5.9 14.2 5.9 7.1.1 12.9-2.4 17.5-7.2zm114.7-71.5c1.8 0 3.5.6 4.8 1.8 1.4 1.2 2.1 2.7 2.1 4.5 0 1.1-.2 2-.7 2.8l-35 75.4c-.7 1.5-1.8 2.8-3.2 3.7s-3 1.3-4.6 1.3c-1.5 0-3.1-.5-4.5-1.3-1.4-.9-2.6-2.1-3.4-3.7l-34.7-75.3c-.5-.8-.7-1.8-.7-2.7 0-1.8.8-3.3 2.4-4.6 1.7-1.3 3.4-2 5.3-2 1.2 0 2.4.4 3.5 1.1 1.2.7 2 1.8 2.6 3.1l29.9 67.2 29.9-66.9c1.3-2.9 3.4-4.4 6.3-4.4zm90.4 0c1.8 0 3.5.6 4.8 1.8 1.4 1.2 2.1 2.7 2.1 4.5 0 1.1-.2 2-.7 2.8l-50.3 108.7c-.6 1.3-1.4 2.4-2.6 3.1s-2.2 1.1-3.5 1.1c-1.8 0-3.4-.6-4.7-1.7-1.4-1.2-2-2.6-2-4.4 0-.9.2-1.9.7-2.8l12.5-27.1-35.5-76.8c-.5-.8-.7-1.8-.7-2.7 0-1.8.8-3.3 2.4-4.6 1.7-1.3 3.4-2 5.3-2 1.2 0 2.4.4 3.5 1.1 1.2.7 2 1.8 2.6 3.1l29.9 67.2 29.9-66.9c1.3-2.9 3.4-4.4 6.3-4.4z" fill="#176c94"/><path d="m283.4 141.1c0 1.2-.4 2.1-1.1 2.8s-1.5 1.1-2.4 1.1c-.8 0-1.8-.2-2.5-.8l-67.4-45.4c-1.8-1.2-2.6-3.3-2.6-6.4 0-2.6.8-4.6 2.6-5.8l67.4-45.4c.7-.6 1.5-.8 2.5-.8s1.8.4 2.4 1.1c.7.7 1.1 1.7 1.1 2.8 0 1.7-.6 2.8-1.7 3.8l-66.5 44.4 66.5 44.7c1.2 1 1.7 2.3 1.7 3.9zm547.4 29.2c-.8.6-1.7.8-2.5.7-1.2-.1-2.1-.7-2.8-1.8s-1.1-2.2-.8-3.5c0-.4.2-.9.6-1.8l66.7-141.8c1.1-2.4 2.7-3.4 4.8-3.2 1.2.1 2.1.7 2.8 1.8s1.1 2.2.8 3.5c0 .4-.2.9-.6 1.8l-66.8 141.8c-.5 1.2-1.2 2.1-2.2 2.5zm72-125.8c0-1.2.4-2.1 1.1-2.8s1.5-1.1 2.4-1.1c.8 0 1.8.2 2.5.8l67.2 45.4c1.8 1.2 2.6 3.3 2.6 6.4 0 2.6-.8 4.6-2.6 5.8l-67.4 45.4c-.7.6-1.5.8-2.5.8-.9 0-1.8-.4-2.4-1.1-.7-.7-1.1-1.7-1.1-2.8 0-1.7.6-2.8 1.7-3.8l66.7-44.6-66.5-44.7c-1.1-.9-1.7-2.1-1.7-3.7z" fill="#9ad3ef" opacity=".9"/></svg>